<svg height="512" viewBox="0 0 512 512" width="512" xmlns="http://www.w3.org/2000/svg"><g id="_21-secured" data-name="21-secured"><g id="linear_color" data-name="linear color"><path d="m488 198h-6v-134a10 10 0 0 0 -10-10h-384a74.083 74.083 0 0 0 -74 74v256a74.083 74.083 0 0 0 74 74h384a10 10 0 0 0 10-10v-134h6a10 10 0 0 0 10-10v-96a10 10 0 0 0 -10-10zm-96 96a22.025 22.025 0 0 1 -22-22v-32a22.025 22.025 0 0 1 22-22h86v76zm70 144h-374a54.061 54.061 0 0 1 -54-54v-256a54.061 54.061 0 0 1 54-54h374v124h-70a42.047 42.047 0 0 0 -42 42v32a42.047 42.047 0 0 0 42 42h70z"/><path d="m424 230a26 26 0 1 0 26 26 26.029 26.029 0 0 0 -26-26zm0 32a6 6 0 1 1 6-6 6.006 6.006 0 0 1 -6 6z"/><path d="m315.979 165.19a10 10 0 0 0 -7.151-8.785l-109.012-32a9.975 9.975 0 0 0 -5.632 0l-109.012 32a10 10 0 0 0 -7.151 8.785c-.022.278-2.267 28.088-3.38 57.726-2.067 55.029 1.267 69.285 4.4 75.557 1.785 3.569 6.527 13.052 60.405 57.92 25.956 21.615 51.146 41.294 51.4 41.49a10 10 0 0 0 12.306 0c.252-.2 25.442-19.875 51.4-41.49 53.878-44.868 58.62-54.351 60.405-57.92 3.136-6.272 6.47-20.528 4.4-75.557-1.111-29.638-3.357-57.448-3.378-57.726zm-18.911 124.337c-4.756 9.511-53.513 51.135-100.068 87.773-46.555-36.633-95.312-78.257-100.068-87.768-.742-1.483-4.34-11.628-2.307-65.8.768-20.485 2.086-40.1 2.813-50.081l99.562-29.229 99.563 29.226c.726 9.983 2.044 29.6 2.812 50.081 2.033 54.171-1.565 64.315-2.307 65.798z"/><path d="m270.857 186.947-71.041-20.853a9.975 9.975 0 0 0 -5.632 0l-71.041 20.853a10 10 0 0 0 -7.166 9.006c-1.709 28.945-2.9 65.572-1.107 81.565a9.992 9.992 0 0 0 2.621 5.7c12.2 13.091 45.826 41.379 73.23 63.485a10 10 0 0 0 12.558 0c27.4-22.106 61.033-50.394 73.23-63.485a9.992 9.992 0 0 0 2.621-5.7c1.79-15.993.6-52.621-1.107-81.565a10 10 0 0 0 -7.166-9.006zm-11.309 85.053c-10.431 10.48-34.008 30.859-62.548 54.057-28.54-23.2-52.117-43.577-62.548-54.06-.908-12.826-.5-38.307 1.093-67.847l61.455-18.04 61.455 18.04c1.593 29.54 2.002 55.021 1.093 67.85z"/><path d="m235.251 214.191a10 10 0 0 0 -14.056 1.562l-26.276 32.847-16.375-10.92a10 10 0 1 0 -11.093 16.64l24 16a10 10 0 0 0 13.355-2.073l32-40a10 10 0 0 0 -1.555-14.056z"/></g></g></svg>